<svg xmlns="http://www.w3.org/2000/svg" width="78.5" height="74.202" viewBox="0 0 78.5 74.202">
  <defs>
    <style>
      .cls-1 {
        fill: #02acb0;
      }

      .cls-2, .cls-4 {
        fill: #fff;
      }

      .cls-3, .cls-4 {
        stroke: none;
      }
    </style>
  </defs>
  <g id="hamburger_x" transform="translate(-297)">
    <path id="Path_1" data-name="Path 1" class="cls-1" d="M0,0H78.5V74.2H0Z" transform="translate(297)"/>
    <g id="Union_5" data-name="Union 5" class="cls-2" transform="translate(3198.964 11.964)">
      <path class="cls-3" d="M -2851.8369140625 38.16287994384766 C -2852.37109375 38.16287994384766 -2852.87353515625 37.95479202270508 -2853.25146484375 37.57694244384766 L -2862.797119140625 28.03110122680664 L -2863.150634765625 27.67754173278809 L -2863.504150390625 28.03110122680664 L -2873.050048828125 37.57695007324219 C -2873.427978515625 37.95478057861328 -2873.93017578125 38.16287994384766 -2874.464599609375 38.16287994384766 C -2874.99853515625 38.16287994384766 -2875.50048828125 37.95484924316406 -2875.8779296875 37.57711029052734 C -2876.256103515625 37.19910049438477 -2876.464111328125 36.6969108581543 -2876.464111328125 36.16290283203125 C -2876.464111328125 35.62889099121094 -2876.256103515625 35.12670135498047 -2875.878173828125 34.74885940551758 L -2866.33251953125 25.20281028747559 L -2865.97900390625 24.84925079345703 L -2866.33251953125 24.4957103729248 L -2875.878173828125 14.95005130767822 C -2876.256103515625 14.57220077514648 -2876.464111328125 14.06985092163086 -2876.464111328125 13.53555107116699 C -2876.464111328125 13.00125122070313 -2876.256103515625 12.4989013671875 -2875.878173828125 12.12106132507324 C -2875.500732421875 11.74365139007568 -2874.998779296875 11.53580093383789 -2874.464599609375 11.53580093383789 C -2873.93017578125 11.53580093383789 -2873.427734375 11.74371147155762 -2873.0498046875 12.12123107910156 L -2863.504150390625 21.66709136962891 L -2863.150634765625 22.02066040039063 L -2862.797119140625 21.66709136962891 L -2853.25146484375 12.12105083465576 C -2852.873779296875 11.74371147155762 -2852.371337890625 11.53580093383789 -2851.8369140625 11.53580093383789 C -2851.302734375 11.53580093383789 -2850.800537109375 11.74365139007568 -2850.423095703125 12.12105083465576 C -2849.643310546875 12.90099143981934 -2849.643310546875 14.17011070251465 -2850.423095703125 14.95008087158203 L -2859.968505859375 24.49545097351074 L -2860.322021484375 24.84900093078613 L -2859.968505859375 25.20255088806152 L -2850.42236328125 34.74885177612305 C -2849.6435546875 35.52849197387695 -2849.6435546875 36.79730987548828 -2850.422607421875 37.57711029052734 C -2850.80029296875 37.95479202270508 -2851.302734375 38.16287994384766 -2851.8369140625 38.16287994384766 Z"/>
      <path class="cls-4" d="M -2851.8369140625 37.66287994384766 C -2851.436279296875 37.66287994384766 -2851.059326171875 37.50679016113281 -2850.7763671875 37.22372055053711 C -2850.19189453125 36.6387825012207 -2850.19189453125 35.68701934814453 -2850.77587890625 35.10240173339844 L -2860.322021484375 25.55610084533691 L -2861.029296875 24.84899139404297 L -2860.322021484375 24.14189147949219 L -2850.77685546875 14.59656143188477 C -2850.19189453125 14.0115213394165 -2850.19189453125 13.05958080291748 -2850.776611328125 12.47460079193115 C -2851.0595703125 12.19164085388184 -2851.436279296875 12.03580093383789 -2851.8369140625 12.03580093383789 C -2852.23779296875 12.03580093383789 -2852.61474609375 12.1917610168457 -2852.89794921875 12.47459125518799 L -2862.443603515625 22.02063179016113 L -2863.150634765625 22.7277717590332 L -2863.857666015625 22.0206413269043 L -2873.4033203125 12.47495079040527 C -2873.686767578125 12.1917610168457 -2874.063720703125 12.03580093383789 -2874.464599609375 12.03580093383789 C -2874.865234375 12.03580093383789 -2875.24169921875 12.19164085388184 -2875.524658203125 12.47463130950928 C -2875.80810546875 12.75803089141846 -2875.964111328125 13.13481140136719 -2875.964111328125 13.53555107116699 C -2875.964111328125 13.9362907409668 -2875.80810546875 14.31307125091553 -2875.524658203125 14.59649085998535 L -2865.97900390625 24.14215087890625 L -2865.271728515625 24.84925079345703 L -2865.97900390625 25.55635070800781 L -2875.524658203125 35.10243225097656 C -2875.80810546875 35.38582992553711 -2875.964111328125 35.762451171875 -2875.964111328125 36.16290283203125 C -2875.964111328125 36.56335067749023 -2875.80810546875 36.93997192382813 -2875.524169921875 37.22372055053711 C -2875.2412109375 37.50691986083984 -2874.864990234375 37.66287994384766 -2874.464599609375 37.66287994384766 C -2874.063720703125 37.66287994384766 -2873.68701171875 37.50679016113281 -2873.403564453125 37.22339248657227 L -2863.857666015625 27.67754173278809 L -2863.150634765625 26.97043037414551 L -2862.443603515625 27.67755126953125 L -2852.89794921875 37.22336959838867 C -2852.614501953125 37.50679016113281 -2852.237548828125 37.66287994384766 -2851.8369140625 37.66287994384766 M -2851.8369140625 38.66287994384766 C -2852.476806640625 38.66287994384766 -2853.11669921875 38.41875076293945 -2853.60498046875 37.93050003051758 L -2863.150634765625 28.38465118408203 L -2872.696533203125 37.93050003051758 C -2873.184814453125 38.41875076293945 -2873.82470703125 38.66287612915039 -2874.46435546875 38.66287612915039 C -2875.104248046875 38.66287612915039 -2875.743896484375 38.41875076293945 -2876.231689453125 37.93050003051758 C -2877.208251953125 36.95400238037109 -2877.208251953125 35.37179946899414 -2876.231689453125 34.39530181884766 L -2866.68603515625 24.8492603302002 L -2876.231689453125 15.30360126495361 C -2877.208251953125 14.32710075378418 -2877.208251953125 12.7440013885498 -2876.231689453125 11.76750087738037 C -2875.743896484375 11.27970123291016 -2875.104248046875 11.03580093383789 -2874.46435546875 11.03580093383789 C -2873.82470703125 11.03580093383789 -2873.184814453125 11.27970123291016 -2872.696533203125 11.76750087738037 L -2863.150634765625 21.31354141235352 L -2853.60498046875 11.76750087738037 C -2853.11669921875 11.27970123291016 -2852.476806640625 11.03580093383789 -2851.8369140625 11.03580093383789 C -2851.197021484375 11.03580093383789 -2850.557373046875 11.27970123291016 -2850.069580078125 11.76750087738037 C -2849.09326171875 12.7440013885498 -2849.09326171875 14.32710075378418 -2850.069580078125 15.30360126495361 L -2859.614990234375 24.84900093078613 L -2850.06884765625 34.39530181884766 C -2849.09326171875 35.37179946899414 -2849.09326171875 36.95400238037109 -2850.06884765625 37.93050003051758 C -2850.55712890625 38.41875076293945 -2851.197021484375 38.66287994384766 -2851.8369140625 38.66287994384766 Z"/>
    </g>
  </g>
</svg>
