<svg xmlns="http://www.w3.org/2000/svg" xmlns:xlink="http://www.w3.org/1999/xlink" width="1080" height="1080" viewBox="0 0 1080 1080">
  <defs>
    <linearGradient id="linear-gradient" x1="1" y1="0.5" x2="0" y2="0.53" gradientUnits="objectBoundingBox">
      <stop offset="0" stop-color="#00c8ac"/>
      <stop offset="1" stop-color="#02aab0"/>
    </linearGradient>
    <clipPath id="clip-logo_icc">
      <rect width="1080" height="1080"/>
    </clipPath>
  </defs>
  <g id="logo_icc" data-name="logo icc" clip-path="url(#clip-logo_icc)">
    <rect width="1080" height="1080" fill="rgba(255,255,255,0)"/>
    <path id="Intersection_1" data-name="Intersection 1" d="M485.339,1076.214a540.591,540.591,0,0,1-53.568-8.175c-17.381-3.557-34.776-8.03-51.7-13.294-16.737-5.207-33.413-11.309-49.567-18.142-16-6.769-31.87-14.412-47.16-22.718-15.18-8.247-30.146-17.339-44.482-27.023-14.267-9.638-28.24-20.088-41.532-31.057-13.261-10.944-26.15-22.659-38.312-34.821s-23.877-25.052-34.821-38.312c-10.97-13.293-21.419-27.266-31.057-41.532-9.685-14.335-18.777-29.3-27.023-44.482C57.809,781.367,50.166,765.5,43.4,749.5c-6.832-16.153-12.936-32.829-18.142-49.567-5.265-16.927-9.737-34.322-13.294-51.7a540.761,540.761,0,0,1-8.175-53.568,547.567,547.567,0,0,1,0-110.322,540.838,540.838,0,0,1,8.175-53.568c3.557-17.381,8.03-34.776,13.294-51.7,5.207-16.737,11.31-33.413,18.142-49.567,6.769-16,14.412-31.87,22.718-47.16,8.247-15.18,17.339-30.146,27.023-44.482,9.638-14.266,20.087-28.24,31.057-41.532,10.944-13.261,22.659-26.15,34.821-38.312s25.051-23.877,38.312-34.821c13.292-10.97,27.266-21.419,41.532-31.057,14.335-9.685,29.3-18.777,44.482-27.023C298.633,56.808,314.5,49.165,330.5,42.4c16.153-6.832,32.829-12.936,49.567-18.142,16.926-5.264,34.322-9.737,51.7-13.294a540.837,540.837,0,0,1,53.568-8.175,547.567,547.567,0,0,1,110.322,0,540.761,540.761,0,0,1,53.568,8.175c17.38,3.557,34.775,8.029,51.7,13.294,16.737,5.206,33.413,11.31,49.567,18.142,16,6.769,31.87,14.412,47.16,22.718,15.18,8.247,30.146,17.338,44.482,27.023,14.266,9.638,28.239,20.087,41.532,31.057,13.261,10.944,26.151,22.659,38.312,34.821s23.877,25.051,34.821,38.312c10.969,13.292,21.419,27.266,31.057,41.532,9.685,14.335,18.777,29.3,27.023,44.482,8.306,15.29,15.949,31.157,22.717,47.16,6.834,16.153,12.937,32.829,18.143,49.567,5.264,16.926,9.737,34.322,13.294,51.7a540.555,540.555,0,0,1,8.175,53.568,547.563,547.563,0,0,1,0,110.322,540.478,540.478,0,0,1-8.175,53.568c-3.557,17.38-8.029,34.775-13.294,51.7-5.207,16.737-11.309,33.413-18.143,49.567-6.768,16-14.411,31.87-22.717,47.16-8.247,15.18-17.339,30.146-27.023,44.482-9.639,14.267-20.088,28.24-31.057,41.532-10.944,13.261-22.659,26.151-34.821,38.312s-25.052,23.877-38.312,34.821c-13.292,10.969-27.266,21.418-41.532,31.057-14.335,9.685-29.3,18.777-44.482,27.023-15.29,8.306-31.156,15.949-47.16,22.718-16.153,6.833-32.829,12.936-49.567,18.142-16.927,5.265-34.322,9.737-51.7,13.294a540.514,540.514,0,0,1-53.568,8.175,547.563,547.563,0,0,1-110.322,0ZM40,539.5C40,815.477,264.523,1040,540.5,1040S1041,815.477,1041,539.5,816.477,39,540.5,39,40,263.523,40,539.5ZM183.5,706Q165,688.5,165,663.5q0-25.5,18.5-42.25T231,604.5q29,0,47.5,16.75T297,663.5q0,25-18.5,42.5T231,723.5Q202,723.5,183.5,706ZM647,588V499l255-92.5v85l-151.5,52,151.5,52v85Zm-310,0V499l255-92.5v85l-151.5,52,151.5,52v85Zm-151-3.5-22.5-216h135L276,584.5Z" transform="translate(-0.5 0.5)" fill="url(#linear-gradient)"/>
  </g>
</svg>
