<?xml version="1.0" encoding="UTF-8"?>
<svg xmlns="http://www.w3.org/2000/svg" xmlns:xlink="http://www.w3.org/1999/xlink" width="50pt" height="50pt" viewBox="0 0 50 50" version="1.1">
<defs>
<linearGradient id="linear0" gradientUnits="userSpaceOnUse" x1="1" y1="0.5" x2="0" y2="0.53" gradientTransform="matrix(49.695312,0,0,49.695312,0.152344,0.152344)">
<stop offset="0" style="stop-color:rgb(0%,78.431373%,67.45098%);stop-opacity:1;"/>
<stop offset="1" style="stop-color:rgb(0.784314%,66.666667%,69.019608%);stop-opacity:1;"/>
</linearGradient>
</defs>
<g id="surface1">
<path style=" stroke:none;fill-rule:nonzero;fill:url(#linear0);" d="M 22.445312 49.847656 C 21.613281 49.761719 20.785156 49.636719 19.964844 49.46875 C 19.160156 49.304688 18.355469 49.097656 17.574219 48.855469 C 16.796875 48.613281 16.027344 48.332031 15.277344 48.015625 C 14.539062 47.699219 13.800781 47.347656 13.09375 46.960938 C 12.390625 46.582031 11.699219 46.160156 11.035156 45.710938 C 10.375 45.265625 9.726562 44.78125 9.113281 44.273438 C 8.5 43.765625 7.902344 43.222656 7.339844 42.660156 C 6.777344 42.097656 6.234375 41.5 5.726562 40.886719 C 5.21875 40.273438 4.734375 39.625 4.289062 38.964844 C 3.839844 38.300781 3.417969 37.609375 3.039062 36.90625 C 2.652344 36.199219 2.300781 35.464844 1.984375 34.722656 C 1.667969 33.972656 1.386719 33.203125 1.144531 32.425781 C 0.902344 31.644531 0.695312 30.839844 0.53125 30.035156 C 0.363281 29.214844 0.238281 28.386719 0.152344 27.554688 C -0.0195312 25.855469 -0.0195312 24.144531 0.152344 22.445312 C 0.238281 21.613281 0.363281 20.785156 0.53125 19.964844 C 0.695312 19.160156 0.902344 18.355469 1.144531 17.574219 C 1.386719 16.796875 1.667969 16.027344 1.984375 15.277344 C 2.300781 14.539062 2.652344 13.800781 3.039062 13.09375 C 3.417969 12.390625 3.839844 11.699219 4.289062 11.035156 C 4.734375 10.375 5.21875 9.726562 5.726562 9.113281 C 6.234375 8.5 6.777344 7.902344 7.339844 7.339844 C 7.902344 6.777344 8.5 6.234375 9.113281 5.726562 C 9.726562 5.21875 10.375 4.734375 11.035156 4.289062 C 11.699219 3.839844 12.390625 3.417969 13.09375 3.039062 C 13.800781 2.652344 14.535156 2.300781 15.277344 1.984375 C 16.027344 1.667969 16.796875 1.386719 17.574219 1.144531 C 18.355469 0.902344 19.160156 0.695312 19.964844 0.53125 C 20.785156 0.363281 21.613281 0.238281 22.445312 0.152344 C 24.144531 -0.0195312 25.855469 -0.0195312 27.554688 0.152344 C 28.386719 0.238281 29.214844 0.363281 30.035156 0.53125 C 30.839844 0.695312 31.644531 0.902344 32.425781 1.144531 C 33.203125 1.386719 33.972656 1.667969 34.722656 1.984375 C 35.460938 2.300781 36.199219 2.652344 36.90625 3.039062 C 37.609375 3.417969 38.300781 3.839844 38.964844 4.289062 C 39.625 4.734375 40.273438 5.21875 40.886719 5.726562 C 41.5 6.234375 42.097656 6.777344 42.660156 7.339844 C 43.222656 7.902344 43.765625 8.5 44.273438 9.113281 C 44.78125 9.726562 45.265625 10.375 45.710938 11.035156 C 46.160156 11.699219 46.582031 12.390625 46.960938 13.09375 C 47.347656 13.800781 47.699219 14.539062 48.015625 15.277344 C 48.332031 16.027344 48.613281 16.796875 48.855469 17.574219 C 49.097656 18.355469 49.304688 19.160156 49.46875 19.964844 C 49.636719 20.785156 49.761719 21.613281 49.847656 22.445312 C 50.019531 24.144531 50.019531 25.855469 49.847656 27.554688 C 49.761719 28.386719 49.636719 29.214844 49.46875 30.035156 C 49.304688 30.839844 49.097656 31.644531 48.855469 32.425781 C 48.613281 33.203125 48.332031 33.972656 48.015625 34.722656 C 47.699219 35.460938 47.347656 36.199219 46.960938 36.90625 C 46.582031 37.609375 46.160156 38.300781 45.710938 38.964844 C 45.265625 39.625 44.78125 40.273438 44.273438 40.886719 C 43.765625 41.5 43.222656 42.097656 42.660156 42.660156 C 42.097656 43.222656 41.5 43.765625 40.886719 44.273438 C 40.273438 44.78125 39.625 45.265625 38.964844 45.710938 C 38.300781 46.160156 37.609375 46.582031 36.90625 46.960938 C 36.199219 47.347656 35.460938 47.699219 34.722656 48.015625 C 33.972656 48.332031 33.203125 48.613281 32.425781 48.855469 C 31.644531 49.097656 30.839844 49.304688 30.035156 49.46875 C 29.214844 49.636719 28.386719 49.761719 27.554688 49.847656 C 25.855469 50.019531 24.144531 50.019531 22.445312 49.847656 Z M 1.828125 25 C 1.828125 37.777344 12.222656 48.171875 25 48.171875 C 37.777344 48.171875 48.171875 37.777344 48.171875 25 C 48.171875 12.222656 37.777344 1.828125 25 1.828125 C 12.222656 1.828125 1.828125 12.222656 1.828125 25 Z M 8.472656 32.707031 C 7.902344 32.167969 7.617188 31.511719 7.617188 30.742188 C 7.617188 29.953125 7.902344 29.300781 8.472656 28.785156 C 9.042969 28.269531 9.777344 28.007812 10.671875 28.007812 C 11.566406 28.007812 12.300781 28.269531 12.871094 28.785156 C 13.441406 29.300781 13.726562 29.953125 13.726562 30.742188 C 13.726562 31.511719 13.441406 32.167969 12.871094 32.707031 C 12.300781 33.25 11.566406 33.519531 10.671875 33.519531 C 9.777344 33.519531 9.042969 33.25 8.472656 32.707031 Z M 29.929688 27.246094 L 29.929688 23.125 L 41.734375 18.84375 L 41.734375 22.777344 L 34.722656 25.183594 L 41.734375 27.59375 L 41.734375 31.527344 Z M 15.578125 27.246094 L 15.578125 23.125 L 27.382812 18.84375 L 27.382812 22.777344 L 20.371094 25.183594 L 27.382812 27.59375 L 27.382812 31.527344 Z M 8.589844 27.082031 L 7.546875 17.082031 L 13.796875 17.082031 L 12.753906 27.082031 Z M 8.589844 27.082031 "/>
</g>
</svg>
